<svg width="32" height="32" viewBox="0 0 32 32" fill="none" xmlns="http://www.w3.org/2000/svg">
<g clip-path="url(#clip0_3938_100)">
<path d="M9.2307 0.503052C9.2307 0.503052 4.70616 0.539236 4.29032 0.593042C3.49092 0.693918 1.71544 1.12543 0.984573 2.74006C-0.0109004 4.93996 1.86323 8.05663 1.86323 8.05663L4.21948 12.2081" stroke="black" stroke-width="1.5" stroke-linecap="round"/>
<path d="M6.61878 24.2454C7.20569 23.8411 7.38412 22.9891 7.0173 22.3423C6.65049 21.6955 5.87736 21.4988 5.29046 21.9031L4.58187 22.3912C3.99497 22.7954 3.81655 23.6474 4.18336 24.2942C4.55018 24.941 5.32332 25.1376 5.91022 24.7334L6.61878 24.2454Z" fill="black"/>
<path d="M11.8728 13.3886C12.4597 12.9843 12.6382 12.1323 12.2713 11.4855C11.9045 10.8387 11.1314 10.642 10.5445 11.0463L3.69536 15.7639C3.10845 16.1681 2.93003 17.0201 3.29685 17.6669C3.66366 18.3137 4.4368 18.5103 5.0237 18.1061L11.8728 13.3886Z" fill="black"/>
<path d="M14.3317 18.9339C14.9186 18.5297 15.097 17.6776 14.7302 17.0308C14.3634 16.384 13.5902 16.1875 13.0033 16.5917L9.08966 19.2874C8.50275 19.6916 8.32432 20.5436 8.69114 21.1904C9.05795 21.8372 9.83111 22.0338 10.418 21.6296L14.3317 18.9339Z" fill="black"/>
<path d="M28.7594 11.8939C29.2159 11.5795 29.3547 10.9167 29.0693 10.4137C28.7841 9.91063 28.1827 9.75768 27.7262 10.0721C27.2697 10.3865 27.131 11.0492 27.4162 11.5523C27.7016 12.0554 28.3029 12.2083 28.7594 11.8939Z" fill="black"/>
<path d="M23.0913 15.9175C22.3963 17.4675 21.6 19.2474 20.8857 20.8438C19.8849 23.0808 19.0452 24.9575 18.8716 25.3362C18.2085 26.7886 17.5631 27.2786 16.7844 27.1939C16.1812 27.1339 15.3853 26.2981 15.3324 24.6337C15.2796 22.9693 15.0982 18.4107 11.9201 20.5991C11.8655 20.503 11.8389 20.3542 11.81 20.1931C11.7761 20.0036 11.7391 19.7972 11.65 19.6401C10.9087 18.333 7.85861 12.9001 8.07994 12.7477C8.30122 12.5952 9.3235 11.5501 8.6819 10.3491C8.12966 9.31529 7.2259 8.72414 6.24836 8.08473C6.09025 7.98135 5.93025 7.87666 5.76949 7.76865C4.28571 6.71964 3.94173 5.90796 4.28881 4.8213C4.72909 3.79742 6.18033 3.80038 6.77458 3.8217C7.35656 3.84307 11.7993 3.86844 16.25 3.87625L13.3504 12.6408C13.1988 13.1552 13.2149 13.7118 13.3959 14.2145C13.7205 14.6538 14.1857 14.9395 14.6955 15.0126L23.0897 15.9158L23.0913 15.9175Z" fill="black"/>
<path d="M19.6099 3.87848C19.4813 3.90672 19.3566 3.95715 19.2406 4.02887C18.9899 4.18388 18.795 4.42893 18.6884 4.72314C17.6678 7.28942 17.3826 8.10673 16.9767 9.26964C16.8852 9.53171 16.7876 9.81135 16.6741 10.1326C16.6581 10.1841 16.6382 10.2452 16.616 10.3136C16.4415 10.851 16.1193 11.8427 16.3426 12.2365C16.5345 12.5748 16.9652 12.6231 17.7842 12.7151C17.9024 12.7283 18.0286 12.7424 18.1633 12.7586C20.4026 13.0228 23.5666 13.3246 23.5666 13.3246C23.8479 13.2948 24.115 13.1747 24.3349 12.979C24.3864 12.9332 24.4348 12.8837 24.4798 12.8309C24.5623 12.6486 24.6348 12.489 24.6958 12.3553L26.8181 7.69981C26.8252 7.68427 26.8327 7.66807 26.8403 7.65129C27.2732 6.70428 28.5996 3.80288 24.6378 3.85532C23.5038 3.87032 21.6753 3.87719 19.6099 3.87848Z" fill="black"/>
<path d="M30.4348 7.24067C30.4348 7.24067 31.8939 4.72157 30.7297 2.62479C29.5653 0.528009 26.2474 0.49646 26.2474 0.49646L13.9108 0.569403" stroke="black" stroke-width="1.5" stroke-linecap="round"/>
<path d="M11.1302 24.6046C11.1302 24.6046 13.5643 28.9232 13.6846 29.1093C14.0183 29.6284 15.4225 31.5648 17.3036 31.3666C19.524 31.1322 20.9305 27.7299 20.9305 27.7299L26.7724 14.8403" stroke="black" stroke-width="1.5" stroke-linecap="round"/>
</g>
<defs>
<clipPath id="clip0_3938_100">
<rect width="32" height="32" fill="white"/>
</clipPath>
</defs>
</svg>
