<svg width="154" height="49" viewBox="0 0 154 49" fill="none" xmlns="http://www.w3.org/2000/svg">
<path d="M65.573 27.586H62.8331V15.6165H65.4088V17.5736C65.956 16.7403 66.5746 16.1342 67.2649 15.7554C67.9635 15.3682 68.7842 15.1746 69.7269 15.1746C70.6613 15.1746 71.4357 15.3724 72.0501 15.7681C72.6646 16.1553 73.1318 16.7487 73.4516 17.5483C74.0829 16.7234 74.7521 16.1216 75.4592 15.7428C76.1746 15.364 76.9869 15.1746 77.896 15.1746C78.6872 15.1746 79.3774 15.3219 79.9667 15.6165C80.5559 15.9027 81.0146 16.3236 81.3429 16.8791C81.4944 17.1401 81.6038 17.4515 81.6712 17.8135C81.7469 18.1754 81.7848 18.6931 81.7848 19.3665V27.586H79.045V21.4371C79.045 19.8294 78.8724 18.7731 78.5273 18.268C78.1906 17.7546 77.5845 17.4978 76.7091 17.4978C75.6317 17.4978 74.8615 17.8429 74.3986 18.5332C73.944 19.215 73.7168 20.4144 73.7168 22.1316V27.586H70.9517V21.4371C70.9517 19.9557 70.7707 18.9288 70.4088 18.3564C70.0552 17.784 69.4408 17.4978 68.5654 17.4978C68.0266 17.4978 67.5342 17.6199 67.0881 17.864C66.642 18.1081 66.2885 18.4448 66.0275 18.8741C65.8592 19.1518 65.7413 19.4927 65.674 19.8968C65.6066 20.3008 65.573 21.0457 65.573 22.1316V27.586Z" fill="white"/>
<path d="M96.7214 27.586H93.9816V26.033C93.4934 26.7232 92.921 27.2367 92.2644 27.5734C91.6163 27.9101 90.8713 28.0784 90.0296 28.0784C88.3377 28.0784 87.0036 27.5019 86.0272 26.3487C85.0592 25.1871 84.5752 23.6004 84.5752 21.5887C84.5752 19.6779 85.0718 18.1375 86.065 16.9675C87.0583 15.7891 88.3546 15.1999 89.9539 15.1999C90.9303 15.1999 91.7636 15.4061 92.4538 15.8186C93.1525 16.2226 93.6617 16.8076 93.9816 17.5736V15.6165H96.7214V27.586ZM94.0573 21.5634C94.0573 20.3261 93.7669 19.3623 93.1861 18.672C92.6137 17.9818 91.8099 17.6367 90.7745 17.6367C89.7392 17.6367 88.9227 17.9944 88.3251 18.7099C87.7359 19.417 87.4413 20.4018 87.4413 21.6644C87.4413 22.9354 87.7275 23.9161 88.2998 24.6063C88.8722 25.2965 89.6803 25.6416 90.724 25.6416C91.7089 25.6416 92.5085 25.267 93.123 24.5179C93.7459 23.7688 94.0573 22.7839 94.0573 21.5634Z" fill="white"/>
<path d="M109.108 21.5634C109.108 20.3261 108.817 19.3623 108.236 18.672C107.664 17.9818 106.86 17.6367 105.825 17.6367C104.789 17.6367 103.973 17.9944 103.375 18.7099C102.786 19.417 102.492 20.4018 102.492 21.6644C102.492 22.9354 102.778 23.9161 103.35 24.6063C103.922 25.2965 104.731 25.6416 105.774 25.6416C106.759 25.6416 107.559 25.267 108.173 24.5179C108.796 23.7688 109.108 22.7839 109.108 21.5634ZM111.772 26.8411C111.772 29.1811 111.304 30.8267 110.37 31.7779C109.436 32.7374 107.862 33.2172 105.648 33.2172C103.998 33.2172 102.681 32.8679 101.696 32.1693C100.711 31.4791 100.21 30.5574 100.194 29.4042L103.135 29.3915C103.178 29.905 103.417 30.2964 103.855 30.5658C104.293 30.8351 104.907 30.9698 105.699 30.9698C106.869 30.9698 107.71 30.7131 108.224 30.1996C108.737 29.6862 108.998 28.8276 109.007 27.6239L109.032 26.033C108.544 26.7232 107.971 27.2367 107.315 27.5734C106.667 27.9101 105.922 28.0784 105.08 28.0784C103.388 28.0784 102.054 27.5019 101.077 26.3487C100.109 25.1871 99.625 23.6004 99.625 21.5887C99.625 19.6779 100.122 18.1375 101.115 16.9675C102.109 15.7891 103.405 15.1999 105.004 15.1999C105.981 15.1999 106.814 15.4061 107.504 15.8186C108.203 16.2226 108.712 16.8076 109.032 17.5736V15.6165H111.772V26.8411Z" fill="white"/>
<path d="M127.011 28.3057L124.246 22.0811C124.036 21.6013 123.863 21.1762 123.729 20.8058C123.594 20.4271 123.472 20.0567 123.362 19.6948C123.177 20.2419 123.013 20.7133 122.87 21.1089C122.727 21.4961 122.613 21.7865 122.529 21.9801L119.688 28.3057L113.489 15.6165H116.405L119.095 21.3866C119.204 21.6307 119.309 21.9674 119.41 22.3967C119.52 22.8176 119.612 23.2848 119.688 23.7982C119.697 23.4952 119.747 23.1795 119.84 22.8513C119.932 22.523 120.088 22.119 120.307 21.6392L123.236 15.1746H123.463L126.443 21.6392C126.628 22.0432 126.763 22.4178 126.847 22.7629C126.94 23.108 126.994 23.4531 127.011 23.7982C127.087 23.3437 127.184 22.9144 127.302 22.5104C127.42 22.1063 127.554 21.7402 127.706 21.4119L130.345 15.6165H133.236L127.011 28.3057Z" fill="white"/>
<path d="M146.215 27.586H143.476V26.033C142.987 26.7232 142.415 27.2367 141.758 27.5734C141.11 27.9101 140.365 28.0784 139.524 28.0784C137.832 28.0784 136.498 27.5019 135.521 26.3487C134.553 25.1871 134.069 23.6004 134.069 21.5887C134.069 19.6779 134.566 18.1375 135.559 16.9675C136.552 15.7891 137.849 15.1999 139.448 15.1999C140.424 15.1999 141.258 15.4061 141.948 15.8186C142.647 16.2226 143.156 16.8076 143.476 17.5736V15.6165H146.215V27.586ZM143.551 21.5634C143.551 20.3261 143.261 19.3623 142.68 18.672C142.108 17.9818 141.304 17.6367 140.269 17.6367C139.233 17.6367 138.417 17.9944 137.819 18.7099C137.23 19.417 136.935 20.4018 136.935 21.6644C136.935 22.9354 137.222 23.9161 137.794 24.6063C138.366 25.2965 139.174 25.6416 140.218 25.6416C141.203 25.6416 142.003 25.267 142.617 24.5179C143.24 23.7688 143.551 22.7839 143.551 21.5634Z" fill="white"/>
<path d="M149.763 10.4399C149.763 9.9769 149.932 9.5771 150.268 9.2404C150.614 8.9037 151.022 8.7354 151.493 8.7354C151.981 8.7354 152.385 8.8995 152.705 9.2278C153.034 9.5476 153.198 9.9517 153.198 10.4399C153.198 10.9281 153.034 11.3405 152.705 11.6772C152.377 12.0055 151.973 12.1696 151.493 12.1696C151.022 12.1696 150.614 12.0013 150.268 11.6646C149.932 11.3195 149.763 10.9112 149.763 10.4399ZM150.13 27.586V15.6165H152.869V27.586H150.13Z" fill="white"/>
<path fill-rule="evenodd" clip-rule="evenodd" d="M16.3268 0.765059C16.3298 1.17926 15.9964 1.51748 15.5822 1.52048L15.5714 0.0205203C15.9856 0.017515 16.3238 0.350856 16.3268 0.765059ZM7.15462 0.163166C6.43184 0.245894 5.26129 0.463924 4.09363 1.00161C2.92453 1.53995 1.70749 2.42349 0.990336 3.86111C0.00773084 5.83153 0.469314 8.12152 1.06717 9.78345C1.37354 10.6351 1.73376 11.3719 2.01649 11.8951C2.15826 12.1574 2.28157 12.3679 2.37045 12.5143C2.41492 12.5876 2.45084 12.6449 2.47625 12.6849C2.48895 12.7049 2.49903 12.7205 2.50624 12.7316L2.51258 12.7413L6.48454 19.0916C6.7042 19.4428 7.16694 19.5494 7.51812 19.3298C7.8693 19.1101 7.97592 18.6474 7.75627 18.2962L3.77484 11.9307L3.76974 11.923L3.76896 11.9218L3.76413 11.9144L3.74195 11.8799C3.72185 11.8483 3.69147 11.7998 3.65274 11.736C3.57523 11.6083 3.46458 11.4196 3.3361 11.1819C3.07835 10.705 2.75291 10.0382 2.47862 9.2757C1.91515 7.70936 1.63541 5.92886 2.33259 4.53069M7.15462 0.163166C7.37815 0.137297 8.03438 0.118417 8.82313 0.102166C9.6408 0.085319 10.6635 0.0706389 11.6624 0.0585556C12.6617 0.0464677 13.6389 0.0369597 14.3662 0.0304742C14.7298 0.0272312 15.031 0.0247433 15.2414 0.0230659L15.5714 0.0205203L15.5822 1.52048L15.2533 1.52302C15.0434 1.52469 14.7426 1.52718 14.3795 1.53041C13.6532 1.53689 12.6778 1.54638 11.6806 1.55845C10.683 1.57051 9.66531 1.58513 8.85402 1.60185C8.01641 1.61911 7.45682 1.63798 7.32738 1.65318L7.32519 1.65344C6.69901 1.72511 5.697 1.91468 4.72103 2.36409C3.74652 2.81283 2.8488 3.49596 2.33259 4.53069" fill="#BFECFF"/>
<path d="M20.0354 20.5014C21.0258 19.8824 21.3269 18.5777 20.7079 17.5873C20.0889 16.5969 18.7842 16.2959 17.7938 16.9149L6.2359 24.1386C5.2455 24.7576 4.94442 26.0623 5.56342 27.0527C6.18242 28.043 7.4871 28.3441 8.4775 27.7251L20.0354 20.5014Z" fill="white"/>
<path d="M24.1847 28.9926C25.1751 28.3736 25.4762 27.069 24.8572 26.0786C24.2382 25.0882 22.9335 24.7871 21.9431 25.4061L15.3388 29.5338C14.3484 30.1528 14.0473 31.4575 14.6663 32.4479C15.2853 33.4383 16.59 33.7393 17.5804 33.1203L24.1847 28.9926Z" fill="white"/>
<path fill-rule="evenodd" clip-rule="evenodd" d="M38.9666 24.3739C37.7938 26.7473 36.45 29.4728 35.2447 31.9173C33.5557 35.3427 32.1388 38.2163 31.8459 38.7962C30.7269 41.0202 29.6378 41.7705 28.3237 41.6408C27.3057 41.549 25.9627 40.2691 25.8735 37.7205C25.7843 35.172 25.4782 28.1917 20.1151 31.5427C20.023 31.3954 19.9781 31.1675 19.9294 30.921C19.8721 30.6307 19.8097 30.3146 19.6594 30.0741C18.4084 28.0725 13.2614 19.7534 13.6349 19.52C14.0083 19.2866 15.7334 17.6863 14.6507 15.8472C13.7188 14.2642 12.1937 13.359 10.5441 12.38C10.2773 12.2216 10.0073 12.0614 9.73599 11.896C7.23209 10.2896 6.65165 9.0467 7.23739 7.3828C7.98029 5.815 10.4293 5.8195 11.4321 5.8522C12.4142 5.8849 19.9114 5.9237 27.4218 5.9357L22.5288 19.3564C22.273 20.1441 22.3001 20.9963 22.6055 21.7661C23.1534 22.4388 23.9383 22.8762 24.7987 22.9882L38.9638 24.3712L38.9666 24.3739ZM33.0916 5.939C32.8747 5.9822 32.6642 6.0595 32.4685 6.1693C32.0455 6.4067 31.7166 6.7819 31.5367 7.2324C29.8144 11.162 29.3331 12.4135 28.6482 14.1942C28.4938 14.5956 28.3291 15.0238 28.1375 15.5156C28.1105 15.5945 28.077 15.688 28.0395 15.7928C27.745 16.6156 27.2013 18.1343 27.5782 18.7372C27.902 19.2553 28.6287 19.3293 30.0109 19.47C30.2103 19.4903 30.4233 19.512 30.6506 19.5366C34.4293 19.9412 39.7686 20.4034 39.7686 20.4034C40.2433 20.3579 40.6941 20.1739 41.0651 19.8742C41.152 19.804 41.2336 19.7282 41.3096 19.6474C41.4488 19.3683 41.5712 19.1239 41.6742 18.9192L45.2556 11.7904C45.2676 11.7666 45.2801 11.7418 45.293 11.7161C46.0236 10.266 48.2618 5.8233 41.5763 5.9035C39.6627 5.9265 36.577 5.937 33.0916 5.939Z" fill="white"/>
<path fill-rule="evenodd" clip-rule="evenodd" d="M44.299 0.0101547L44.2925 0.7602C44.299 0.0102282 44.299 0.0101547 44.299 0.0101547L44.3017 0.0102549L44.3064 0.0103123L44.3219 0.0105553C44.3349 0.0107863 44.3532 0.0111718 44.3764 0.0118083C44.4228 0.0130814 44.4892 0.0153603 44.5731 0.0194226C44.741 0.0275424 44.9799 0.0428151 45.2715 0.0715224C45.8532 0.128782 46.6526 0.240263 47.5203 0.458298C49.217 0.884606 51.3549 1.76314 52.4959 3.62774C53.6301 5.48118 53.465 7.48845 53.0681 8.95337C52.8679 9.69254 52.6023 10.3198 52.3873 10.7623C52.2794 10.9842 52.1832 11.1617 52.1127 11.2858C52.0775 11.3479 52.0485 11.3967 52.0277 11.4312C52.0172 11.4485 52.0088 11.4622 52.0026 11.4722L51.995 11.4843L51.9925 11.4883L51.9916 11.4897C51.9916 11.4897 51.9909 11.4908 51.3587 11.0873L51.9909 11.4908C51.768 11.84 51.3043 11.9424 50.9551 11.7195C50.6064 11.4969 50.5039 11.0339 50.7258 10.6849L50.7265 10.6838M50.7265 10.6838L50.7288 10.6801L50.744 10.6552C50.7583 10.6316 50.7803 10.5944 50.8086 10.5448C50.8651 10.4453 50.9459 10.2964 51.0382 10.1066C51.2234 9.72542 51.4506 9.18767 51.6203 8.56115C51.9634 7.29471 52.047 5.76793 51.2165 4.41068C50.3928 3.06458 48.7488 2.3136 47.1548 1.91308C46.3772 1.7177 45.6541 1.61644 45.1246 1.56431C44.8606 1.53832 44.6467 1.52473 44.5007 1.51767C44.4277 1.51414 44.3718 1.51225 44.3353 1.51124L44.2953 1.51032L44.2895 1.51023L23.4785 1.62189C23.0643 1.62411 22.7267 1.29013 22.7245 0.875924C22.7223 0.461717 23.0563 0.124134 23.4705 0.121911L44.299 0.0101547" fill="#FE60B7"/>
<path fill-rule="evenodd" clip-rule="evenodd" d="M45.5135 22.0534C45.8841 22.2385 46.0344 22.689 45.8494 23.0595L35.9962 42.7865L35.9929 42.7935C35.9873 42.8055 35.9794 42.8223 35.9692 42.8437C35.9487 42.8864 35.9191 42.9472 35.8805 43.0237C35.8034 43.1767 35.6901 43.3927 35.5427 43.6519C35.2487 44.1688 34.8144 44.8645 34.2542 45.5754C33.161 46.9626 31.4631 48.5668 29.2713 48.7768C27.4253 48.9533 25.8543 48.1754 24.7142 47.3116C23.5714 46.4459 22.7872 45.4398 22.4808 45.0072L23.0928 44.5737L22.4819 45.0088L22.4808 45.0072C22.3558 44.8304 21.2603 43.0763 20.2248 41.4145C19.6985 40.5699 19.1786 39.7341 18.7903 39.1096L18.1453 38.0719L19.4193 37.2802L20.0641 38.3176C20.4523 38.9418 20.9719 39.7771 21.4979 40.6213C22.024 41.4656 22.556 42.3182 22.9691 42.9774C23.1758 43.3071 23.3521 43.5877 23.483 43.7943C23.5485 43.8977 23.6019 43.9816 23.6417 44.0434C23.6616 44.0744 23.6774 44.0988 23.6892 44.1167C23.7017 44.1357 23.7056 44.1413 23.7042 44.1393L23.7048 44.1402C23.9614 44.5024 24.6435 45.3763 25.6199 46.116C26.599 46.8577 27.8 47.4106 29.1283 47.2836C30.6835 47.1346 32.0457 45.9545 33.076 44.647C33.5776 44.0105 33.9708 43.3814 34.2389 42.9102C34.3725 42.6753 34.474 42.4815 34.5413 42.3482C34.5749 42.2815 34.5999 42.2301 34.6161 42.1963L34.6336 42.1592L34.6374 42.1512L35.3202 42.4614C34.6377 42.1505 34.6378 42.1501 34.6378 42.1501L34.6432 42.1383L44.5074 22.3893C44.6925 22.0187 45.143 21.8683 45.5135 22.0534ZM19.4193 37.2802C19.2008 36.9284 18.7383 36.8202 18.3865 37.0388C18.0346 37.2574 17.9267 37.7201 18.1453 38.0719L19.4193 37.2802Z" fill="#A072FD"/>
</svg>
